<mxfile host="app.diagrams.net" agent="Mozilla/5.0 (Windows NT 10.0; Win64; x64) AppleWebKit/537.36 (KHTML, like Gecko) Chrome/130.0.0.0 Safari/537.36" version="24.8.0">
  <diagram name="Page-1" id="dJtnb-HGtETSuoWj85qX">
    <mxGraphModel dx="1687" dy="878" grid="1" gridSize="10" guides="1" tooltips="1" connect="1" arrows="1" fold="1" page="1" pageScale="1" pageWidth="850" pageHeight="1100" math="0" shadow="0">
      <root>
        <mxCell id="0" />
        <mxCell id="1" parent="0" />
        <mxCell id="NJYt_cSEDjtvAGryxD8u-1" value="" style="rounded=0;whiteSpace=wrap;html=1;" parent="1" vertex="1">
          <mxGeometry x="260" y="70" width="440" height="950" as="geometry" />
        </mxCell>
        <mxCell id="NJYt_cSEDjtvAGryxD8u-3" value="" style="rounded=0;whiteSpace=wrap;html=1;" parent="1" vertex="1">
          <mxGeometry x="425" y="70" width="120" height="30" as="geometry" />
        </mxCell>
        <mxCell id="NJYt_cSEDjtvAGryxD8u-4" value="BookingApp" style="text;html=1;align=center;verticalAlign=middle;whiteSpace=wrap;rounded=0;" parent="1" vertex="1">
          <mxGeometry x="447.5" y="70" width="75" height="30" as="geometry" />
        </mxCell>
        <mxCell id="NJYt_cSEDjtvAGryxD8u-7" style="edgeStyle=orthogonalEdgeStyle;rounded=0;orthogonalLoop=1;jettySize=auto;html=1;exitX=0.5;exitY=1;exitDx=0;exitDy=0;" parent="1" source="NJYt_cSEDjtvAGryxD8u-3" target="NJYt_cSEDjtvAGryxD8u-3" edge="1">
          <mxGeometry relative="1" as="geometry" />
        </mxCell>
        <mxCell id="NJYt_cSEDjtvAGryxD8u-8" value="Instructor" style="shape=umlActor;verticalLabelPosition=bottom;verticalAlign=top;html=1;outlineConnect=0;" parent="1" vertex="1">
          <mxGeometry x="110" y="220" width="30" height="60" as="geometry" />
        </mxCell>
        <mxCell id="NJYt_cSEDjtvAGryxD8u-15" value="Client" style="shape=umlActor;verticalLabelPosition=bottom;verticalAlign=top;html=1;outlineConnect=0;" parent="1" vertex="1">
          <mxGeometry x="110" y="320" width="30" height="60" as="geometry" />
        </mxCell>
        <mxCell id="NJYt_cSEDjtvAGryxD8u-16" value="Admin" style="shape=umlActor;verticalLabelPosition=bottom;verticalAlign=top;html=1;outlineConnect=0;" parent="1" vertex="1">
          <mxGeometry x="790" y="230" width="30" height="60" as="geometry" />
        </mxCell>
        <mxCell id="NJYt_cSEDjtvAGryxD8u-17" value="Register to System" style="ellipse;whiteSpace=wrap;html=1;" parent="1" vertex="1">
          <mxGeometry x="350" y="212.5" width="90" height="50" as="geometry" />
        </mxCell>
        <mxCell id="NJYt_cSEDjtvAGryxD8u-20" value="" style="endArrow=none;html=1;rounded=0;entryX=0;entryY=0.5;entryDx=0;entryDy=0;" parent="1" source="NJYt_cSEDjtvAGryxD8u-8" target="NJYt_cSEDjtvAGryxD8u-17" edge="1">
          <mxGeometry width="50" height="50" relative="1" as="geometry">
            <mxPoint x="390" y="480" as="sourcePoint" />
            <mxPoint x="440" y="430" as="targetPoint" />
          </mxGeometry>
        </mxCell>
        <mxCell id="NJYt_cSEDjtvAGryxD8u-21" value="" style="endArrow=none;html=1;rounded=0;entryX=0;entryY=0.5;entryDx=0;entryDy=0;" parent="1" source="NJYt_cSEDjtvAGryxD8u-15" target="NJYt_cSEDjtvAGryxD8u-17" edge="1">
          <mxGeometry width="50" height="50" relative="1" as="geometry">
            <mxPoint x="140" y="368.7050359712231" as="sourcePoint" />
            <mxPoint x="440" y="430" as="targetPoint" />
          </mxGeometry>
        </mxCell>
        <mxCell id="NJYt_cSEDjtvAGryxD8u-22" value="&lt;span style=&quot;background-color: rgb(255, 255, 102);&quot;&gt;Take on Offerings&lt;/span&gt;" style="ellipse;whiteSpace=wrap;html=1;" parent="1" vertex="1">
          <mxGeometry x="278.75" y="120" width="90" height="50" as="geometry" />
        </mxCell>
        <mxCell id="NJYt_cSEDjtvAGryxD8u-23" value="" style="endArrow=none;html=1;rounded=0;entryX=0;entryY=0.5;entryDx=0;entryDy=0;" parent="1" source="NJYt_cSEDjtvAGryxD8u-8" target="NJYt_cSEDjtvAGryxD8u-22" edge="1">
          <mxGeometry width="50" height="50" relative="1" as="geometry">
            <mxPoint x="390" y="390" as="sourcePoint" />
            <mxPoint x="440" y="340" as="targetPoint" />
          </mxGeometry>
        </mxCell>
        <mxCell id="NJYt_cSEDjtvAGryxD8u-25" value="View All Available Offerings" style="ellipse;whiteSpace=wrap;html=1;" parent="1" vertex="1">
          <mxGeometry x="490" y="130" width="90" height="50" as="geometry" />
        </mxCell>
        <mxCell id="NJYt_cSEDjtvAGryxD8u-26" value="" style="endArrow=none;html=1;rounded=0;entryX=0;entryY=0.5;entryDx=0;entryDy=0;" parent="1" source="NJYt_cSEDjtvAGryxD8u-8" target="NJYt_cSEDjtvAGryxD8u-25" edge="1">
          <mxGeometry width="50" height="50" relative="1" as="geometry">
            <mxPoint x="140" y="135" as="sourcePoint" />
            <mxPoint x="440" y="250" as="targetPoint" />
          </mxGeometry>
        </mxCell>
        <mxCell id="NJYt_cSEDjtvAGryxD8u-27" value="&lt;span style=&quot;background-color: rgb(255, 255, 102);&quot;&gt;View Instructor-Assigned Offerings&lt;/span&gt;" style="ellipse;whiteSpace=wrap;html=1;" parent="1" vertex="1">
          <mxGeometry x="285" y="625" width="112.5" height="75" as="geometry" />
        </mxCell>
        <mxCell id="NJYt_cSEDjtvAGryxD8u-28" value="" style="endArrow=none;html=1;rounded=0;entryX=0;entryY=0;entryDx=0;entryDy=0;" parent="1" source="NJYt_cSEDjtvAGryxD8u-15" target="NJYt_cSEDjtvAGryxD8u-27" edge="1">
          <mxGeometry width="50" height="50" relative="1" as="geometry">
            <mxPoint x="390" y="300" as="sourcePoint" />
            <mxPoint x="440" y="250" as="targetPoint" />
          </mxGeometry>
        </mxCell>
        <mxCell id="NJYt_cSEDjtvAGryxD8u-30" value="" style="endArrow=none;html=1;rounded=0;entryX=0;entryY=0.5;entryDx=0;entryDy=0;" parent="1" source="NJYt_cSEDjtvAGryxD8u-15" target="NJYt_cSEDjtvAGryxD8u-29" edge="1">
          <mxGeometry width="50" height="50" relative="1" as="geometry">
            <mxPoint x="390" y="300" as="sourcePoint" />
            <mxPoint x="440" y="250" as="targetPoint" />
          </mxGeometry>
        </mxCell>
        <mxCell id="NJYt_cSEDjtvAGryxD8u-32" value="&lt;span style=&quot;background-color: rgb(255, 255, 102);&quot;&gt;Make Bookings&lt;/span&gt;" style="ellipse;whiteSpace=wrap;html=1;" parent="1" vertex="1">
          <mxGeometry x="285" y="490" width="90" height="50" as="geometry" />
        </mxCell>
        <mxCell id="NJYt_cSEDjtvAGryxD8u-33" value="&lt;span style=&quot;background-color: rgb(255, 255, 102);&quot;&gt;Make Bookings as Guardian for a Minor&lt;/span&gt;" style="ellipse;whiteSpace=wrap;html=1;" parent="1" vertex="1">
          <mxGeometry x="282.5" y="710" width="117.5" height="70" as="geometry" />
        </mxCell>
        <mxCell id="NJYt_cSEDjtvAGryxD8u-34" value="" style="endArrow=none;html=1;rounded=0;entryX=0;entryY=0.5;entryDx=0;entryDy=0;" parent="1" source="NJYt_cSEDjtvAGryxD8u-15" target="NJYt_cSEDjtvAGryxD8u-32" edge="1">
          <mxGeometry width="50" height="50" relative="1" as="geometry">
            <mxPoint x="140" y="375.07042253521126" as="sourcePoint" />
            <mxPoint x="440" y="490" as="targetPoint" />
          </mxGeometry>
        </mxCell>
        <mxCell id="NJYt_cSEDjtvAGryxD8u-36" value="" style="endArrow=none;html=1;rounded=0;exitX=1;exitY=0.5;exitDx=0;exitDy=0;" parent="1" source="NJYt_cSEDjtvAGryxD8u-25" target="NJYt_cSEDjtvAGryxD8u-16" edge="1">
          <mxGeometry width="50" height="50" relative="1" as="geometry">
            <mxPoint x="390" y="240" as="sourcePoint" />
            <mxPoint x="440" y="190" as="targetPoint" />
          </mxGeometry>
        </mxCell>
        <mxCell id="NJYt_cSEDjtvAGryxD8u-37" value="&lt;span style=&quot;background-color: rgb(255, 255, 102);&quot;&gt;Enter Organization&#39;s Offerings&lt;/span&gt;" style="ellipse;whiteSpace=wrap;html=1;" parent="1" vertex="1">
          <mxGeometry x="550" y="290" width="90" height="55" as="geometry" />
        </mxCell>
        <mxCell id="NJYt_cSEDjtvAGryxD8u-38" value="Delete Instructor Account" style="ellipse;whiteSpace=wrap;html=1;" parent="1" vertex="1">
          <mxGeometry x="550" y="410" width="100" height="65" as="geometry" />
        </mxCell>
        <mxCell id="NJYt_cSEDjtvAGryxD8u-39" value="View All Booked Lessons&#39; Details" style="ellipse;whiteSpace=wrap;html=1;" parent="1" vertex="1">
          <mxGeometry x="550" y="205" width="100" height="65" as="geometry" />
        </mxCell>
        <mxCell id="NJYt_cSEDjtvAGryxD8u-40" value="" style="endArrow=none;html=1;rounded=0;entryX=1;entryY=0.5;entryDx=0;entryDy=0;" parent="1" source="NJYt_cSEDjtvAGryxD8u-16" target="NJYt_cSEDjtvAGryxD8u-39" edge="1">
          <mxGeometry width="50" height="50" relative="1" as="geometry">
            <mxPoint x="390" y="280" as="sourcePoint" />
            <mxPoint x="440" y="230" as="targetPoint" />
          </mxGeometry>
        </mxCell>
        <mxCell id="AEjOl8XH6c3BlYWR8jCu-1" value="" style="endArrow=none;html=1;rounded=0;exitX=1;exitY=0.5;exitDx=0;exitDy=0;" parent="1" source="NJYt_cSEDjtvAGryxD8u-37" target="NJYt_cSEDjtvAGryxD8u-16" edge="1">
          <mxGeometry width="50" height="50" relative="1" as="geometry">
            <mxPoint x="370" y="270" as="sourcePoint" />
            <mxPoint x="420" y="220" as="targetPoint" />
          </mxGeometry>
        </mxCell>
        <mxCell id="AEjOl8XH6c3BlYWR8jCu-2" value="" style="endArrow=none;html=1;rounded=0;exitX=1;exitY=0.5;exitDx=0;exitDy=0;" parent="1" source="NJYt_cSEDjtvAGryxD8u-38" target="NJYt_cSEDjtvAGryxD8u-16" edge="1">
          <mxGeometry width="50" height="50" relative="1" as="geometry">
            <mxPoint x="370" y="270" as="sourcePoint" />
            <mxPoint x="420" y="220" as="targetPoint" />
          </mxGeometry>
        </mxCell>
        <mxCell id="QuV7ogbP-YhtBV3hdmDa-1" value="Login to System" style="ellipse;whiteSpace=wrap;html=1;" parent="1" vertex="1">
          <mxGeometry x="420" y="360" width="102.5" height="70" as="geometry" />
        </mxCell>
        <mxCell id="QuV7ogbP-YhtBV3hdmDa-2" value="" style="endArrow=none;html=1;rounded=0;entryX=0;entryY=0.5;entryDx=0;entryDy=0;exitX=0.5;exitY=0.5;exitDx=0;exitDy=0;exitPerimeter=0;" parent="1" source="NJYt_cSEDjtvAGryxD8u-15" target="QuV7ogbP-YhtBV3hdmDa-1" edge="1">
          <mxGeometry width="50" height="50" relative="1" as="geometry">
            <mxPoint x="150" y="413" as="sourcePoint" />
            <mxPoint x="296" y="488" as="targetPoint" />
          </mxGeometry>
        </mxCell>
        <mxCell id="QuV7ogbP-YhtBV3hdmDa-3" value="" style="endArrow=none;html=1;rounded=0;entryX=0.042;entryY=0.327;entryDx=0;entryDy=0;entryPerimeter=0;" parent="1" source="NJYt_cSEDjtvAGryxD8u-8" target="QuV7ogbP-YhtBV3hdmDa-1" edge="1">
          <mxGeometry width="50" height="50" relative="1" as="geometry">
            <mxPoint x="135" y="405" as="sourcePoint" />
            <mxPoint x="300" y="400" as="targetPoint" />
          </mxGeometry>
        </mxCell>
        <mxCell id="QuV7ogbP-YhtBV3hdmDa-4" value="" style="endArrow=none;html=1;rounded=0;exitX=1;exitY=0.5;exitDx=0;exitDy=0;" parent="1" source="QuV7ogbP-YhtBV3hdmDa-1" target="NJYt_cSEDjtvAGryxD8u-16" edge="1">
          <mxGeometry width="50" height="50" relative="1" as="geometry">
            <mxPoint x="590" y="343" as="sourcePoint" />
            <mxPoint x="730" y="196" as="targetPoint" />
          </mxGeometry>
        </mxCell>
        <mxCell id="0wgOmWiIg92bYx2uxw98-1" value="Delete Offering" style="ellipse;whiteSpace=wrap;html=1;" parent="1" vertex="1">
          <mxGeometry x="545" y="750" width="100" height="65" as="geometry" />
        </mxCell>
        <mxCell id="0wgOmWiIg92bYx2uxw98-2" value="Delete Booking" style="ellipse;whiteSpace=wrap;html=1;" parent="1" vertex="1">
          <mxGeometry x="550" y="910" width="100" height="65" as="geometry" />
        </mxCell>
        <mxCell id="0wgOmWiIg92bYx2uxw98-3" value="" style="endArrow=none;html=1;rounded=0;exitX=1;exitY=0.5;exitDx=0;exitDy=0;" parent="1" source="0wgOmWiIg92bYx2uxw98-1" target="NJYt_cSEDjtvAGryxD8u-16" edge="1">
          <mxGeometry width="50" height="50" relative="1" as="geometry">
            <mxPoint x="590" y="383" as="sourcePoint" />
            <mxPoint x="730" y="200" as="targetPoint" />
          </mxGeometry>
        </mxCell>
        <mxCell id="0wgOmWiIg92bYx2uxw98-4" value="" style="endArrow=none;html=1;rounded=0;exitX=1;exitY=0.5;exitDx=0;exitDy=0;" parent="1" source="0wgOmWiIg92bYx2uxw98-2" target="NJYt_cSEDjtvAGryxD8u-16" edge="1">
          <mxGeometry width="50" height="50" relative="1" as="geometry">
            <mxPoint x="595" y="463" as="sourcePoint" />
            <mxPoint x="740" y="210" as="targetPoint" />
          </mxGeometry>
        </mxCell>
        <mxCell id="0wgOmWiIg92bYx2uxw98-8" value="Cancel Booking" style="ellipse;whiteSpace=wrap;html=1;" parent="1" vertex="1">
          <mxGeometry x="287.5" y="550" width="110" height="60" as="geometry" />
        </mxCell>
        <mxCell id="0wgOmWiIg92bYx2uxw98-9" value="" style="endArrow=none;html=1;rounded=0;entryX=0;entryY=0.5;entryDx=0;entryDy=0;" parent="1" source="NJYt_cSEDjtvAGryxD8u-15" target="0wgOmWiIg92bYx2uxw98-8" edge="1">
          <mxGeometry width="50" height="50" relative="1" as="geometry">
            <mxPoint x="150" y="428" as="sourcePoint" />
            <mxPoint x="301" y="660" as="targetPoint" />
          </mxGeometry>
        </mxCell>
        <mxCell id="0wgOmWiIg92bYx2uxw98-10" value="Edit Offering" style="ellipse;whiteSpace=wrap;html=1;" parent="1" vertex="1">
          <mxGeometry x="550" y="825" width="100" height="65" as="geometry" />
        </mxCell>
        <mxCell id="0wgOmWiIg92bYx2uxw98-13" value="" style="endArrow=none;html=1;rounded=0;exitX=1;exitY=0.5;exitDx=0;exitDy=0;" parent="1" source="0wgOmWiIg92bYx2uxw98-10" target="NJYt_cSEDjtvAGryxD8u-16" edge="1">
          <mxGeometry width="50" height="50" relative="1" as="geometry">
            <mxPoint x="595" y="463" as="sourcePoint" />
            <mxPoint x="740" y="288" as="targetPoint" />
          </mxGeometry>
        </mxCell>
        <mxCell id="yIJzn2MwuFhYIn6YxgDy-2" value="Guardian" style="shape=umlActor;verticalLabelPosition=bottom;verticalAlign=top;html=1;outlineConnect=0;" parent="1" vertex="1">
          <mxGeometry x="110" y="530" width="30" height="60" as="geometry" />
        </mxCell>
        <mxCell id="yIJzn2MwuFhYIn6YxgDy-7" value="" style="endArrow=none;html=1;rounded=0;" parent="1" source="yIJzn2MwuFhYIn6YxgDy-2" target="NJYt_cSEDjtvAGryxD8u-27" edge="1">
          <mxGeometry width="50" height="50" relative="1" as="geometry">
            <mxPoint x="410" y="590" as="sourcePoint" />
            <mxPoint x="460" y="540" as="targetPoint" />
          </mxGeometry>
        </mxCell>
        <mxCell id="yIJzn2MwuFhYIn6YxgDy-8" value="View Their Minors&#39; Booked Lessons&#39; Details" style="ellipse;whiteSpace=wrap;html=1;" parent="1" vertex="1">
          <mxGeometry x="278.75" y="790" width="125" height="80" as="geometry" />
        </mxCell>
        <mxCell id="yIJzn2MwuFhYIn6YxgDy-9" value="" style="endArrow=none;html=1;rounded=0;entryX=0;entryY=0.5;entryDx=0;entryDy=0;" parent="1" source="yIJzn2MwuFhYIn6YxgDy-2" target="NJYt_cSEDjtvAGryxD8u-33" edge="1">
          <mxGeometry width="50" height="50" relative="1" as="geometry">
            <mxPoint x="150" y="610" as="sourcePoint" />
            <mxPoint x="298" y="656" as="targetPoint" />
          </mxGeometry>
        </mxCell>
        <mxCell id="yIJzn2MwuFhYIn6YxgDy-10" value="" style="endArrow=none;html=1;rounded=0;entryX=0;entryY=0.5;entryDx=0;entryDy=0;" parent="1" source="yIJzn2MwuFhYIn6YxgDy-2" target="yIJzn2MwuFhYIn6YxgDy-8" edge="1">
          <mxGeometry width="50" height="50" relative="1" as="geometry">
            <mxPoint x="60" y="670" as="sourcePoint" />
            <mxPoint x="193" y="810" as="targetPoint" />
          </mxGeometry>
        </mxCell>
        <mxCell id="yIJzn2MwuFhYIn6YxgDy-12" value="" style="endArrow=none;html=1;rounded=0;exitX=0.5;exitY=0.5;exitDx=0;exitDy=0;exitPerimeter=0;" parent="1" source="yIJzn2MwuFhYIn6YxgDy-2" target="QuV7ogbP-YhtBV3hdmDa-1" edge="1">
          <mxGeometry width="50" height="50" relative="1" as="geometry">
            <mxPoint x="150" y="610" as="sourcePoint" />
            <mxPoint x="298" y="656" as="targetPoint" />
          </mxGeometry>
        </mxCell>
        <mxCell id="NJYt_cSEDjtvAGryxD8u-29" value="View Their Booked Lessons&#39; Details" style="ellipse;whiteSpace=wrap;html=1;" parent="1" vertex="1">
          <mxGeometry x="278.75" y="390" width="101.25" height="55" as="geometry" />
        </mxCell>
        <mxCell id="yIJzn2MwuFhYIn6YxgDy-14" value="" style="endArrow=none;html=1;rounded=0;exitX=0.5;exitY=0.5;exitDx=0;exitDy=0;exitPerimeter=0;entryX=0;entryY=1;entryDx=0;entryDy=0;" parent="1" source="yIJzn2MwuFhYIn6YxgDy-2" target="NJYt_cSEDjtvAGryxD8u-17" edge="1">
          <mxGeometry width="50" height="50" relative="1" as="geometry">
            <mxPoint x="150" y="610" as="sourcePoint" />
            <mxPoint x="298" y="656" as="targetPoint" />
          </mxGeometry>
        </mxCell>
        <mxCell id="yIJzn2MwuFhYIn6YxgDy-15" value="Cancel a Minor&#39;s Booking" style="ellipse;whiteSpace=wrap;html=1;" parent="1" vertex="1">
          <mxGeometry x="285" y="890" width="110" height="60" as="geometry" />
        </mxCell>
        <mxCell id="yIJzn2MwuFhYIn6YxgDy-16" value="" style="endArrow=none;html=1;rounded=0;entryX=0;entryY=0.5;entryDx=0;entryDy=0;" parent="1" source="yIJzn2MwuFhYIn6YxgDy-2" target="yIJzn2MwuFhYIn6YxgDy-15" edge="1">
          <mxGeometry width="50" height="50" relative="1" as="geometry">
            <mxPoint x="150" y="628" as="sourcePoint" />
            <mxPoint x="289" y="840" as="targetPoint" />
          </mxGeometry>
        </mxCell>
        <mxCell id="yIJzn2MwuFhYIn6YxgDy-17" value="We consider the highlighted use cases as critical. The remaining are supporting, non-critical use cases." style="shape=note;whiteSpace=wrap;html=1;backgroundOutline=1;darkOpacity=0.05;" parent="1" vertex="1">
          <mxGeometry x="40" y="40" width="180" height="130" as="geometry" />
        </mxCell>
        <mxCell id="yIJzn2MwuFhYIn6YxgDy-18" value="Delete Client Account" style="ellipse;whiteSpace=wrap;html=1;" parent="1" vertex="1">
          <mxGeometry x="550" y="490" width="100" height="65" as="geometry" />
        </mxCell>
        <mxCell id="yIJzn2MwuFhYIn6YxgDy-19" value="" style="endArrow=none;html=1;rounded=0;exitX=1;exitY=0.5;exitDx=0;exitDy=0;" parent="1" source="yIJzn2MwuFhYIn6YxgDy-18" target="NJYt_cSEDjtvAGryxD8u-16" edge="1">
          <mxGeometry width="50" height="50" relative="1" as="geometry">
            <mxPoint x="660" y="453" as="sourcePoint" />
            <mxPoint x="800" y="288" as="targetPoint" />
          </mxGeometry>
        </mxCell>
        <mxCell id="xyyyP2KyyX_DLm8rPxqD-1" value="Delete Guardian Account" style="ellipse;whiteSpace=wrap;html=1;" vertex="1" parent="1">
          <mxGeometry x="550" y="570" width="100" height="65" as="geometry" />
        </mxCell>
        <mxCell id="xyyyP2KyyX_DLm8rPxqD-2" value="Delete Minor" style="ellipse;whiteSpace=wrap;html=1;" vertex="1" parent="1">
          <mxGeometry x="545" y="660" width="100" height="65" as="geometry" />
        </mxCell>
        <mxCell id="xyyyP2KyyX_DLm8rPxqD-3" value="" style="endArrow=none;html=1;rounded=0;exitX=1;exitY=0.5;exitDx=0;exitDy=0;" edge="1" parent="1" source="xyyyP2KyyX_DLm8rPxqD-1">
          <mxGeometry width="50" height="50" relative="1" as="geometry">
            <mxPoint x="655" y="793" as="sourcePoint" />
            <mxPoint x="806" y="300" as="targetPoint" />
          </mxGeometry>
        </mxCell>
        <mxCell id="xyyyP2KyyX_DLm8rPxqD-4" value="" style="endArrow=none;html=1;rounded=0;exitX=1;exitY=0.5;exitDx=0;exitDy=0;" edge="1" parent="1" source="xyyyP2KyyX_DLm8rPxqD-2">
          <mxGeometry width="50" height="50" relative="1" as="geometry">
            <mxPoint x="655" y="793" as="sourcePoint" />
            <mxPoint x="806" y="300" as="targetPoint" />
          </mxGeometry>
        </mxCell>
      </root>
    </mxGraphModel>
  </diagram>
</mxfile>
